<?xml version="1.0" standalone="no"?>
<!DOCTYPE svg PUBLIC "-//W3C//DTD SVG 20010904//EN"
 "http://www.w3.org/TR/2001/REC-SVG-20010904/DTD/svg10.dtd">
<svg version="1.0" xmlns="http://www.w3.org/2000/svg"
 width="590.000000pt" height="590.000000pt" viewBox="0 0 590.000000 590.000000"
 preserveAspectRatio="xMidYMid meet">
<metadata>
Created by potrace 1.14, written by Peter Selinger 2001-2017
</metadata>
<g transform="translate(0.000000,590.000000) scale(0.100000,-0.100000)"
fill="#000000" stroke="none">
<path d="M2853 4437 c-3 -5 -26 -6 -52 -3 -32 3 -39 2 -21 -4 23 -7 23 -8 -10
-10 -66 -3 -104 -10 -111 -21 -4 -7 -20 -9 -40 -4 -25 4 -30 3 -19 -4 13 -9
12 -11 -5 -12 -11 -1 -30 -1 -42 0 -13 1 -23 -3 -23 -9 0 -5 -9 -10 -20 -10
-11 0 -20 -5 -20 -11 0 -6 -7 -8 -16 -5 -18 7 -57 -17 -46 -29 4 -4 -1 -5 -10
-2 -10 4 -18 2 -18 -3 0 -6 -12 -10 -26 -10 -14 0 -23 -4 -19 -10 3 -5 -3 -10
-13 -10 -11 0 -40 -11 -63 -25 -24 -14 -40 -25 -35 -25 5 0 3 -7 -4 -15 -7 -8
-18 -15 -24 -15 -6 0 -4 5 4 10 8 5 10 10 4 10 -16 0 -45 -35 -37 -44 4 -4 0
-4 -8 -1 -10 4 -20 -3 -28 -19 -8 -14 -19 -22 -27 -19 -10 4 -12 0 -7 -13 4
-11 3 -15 -5 -10 -6 4 -21 -5 -34 -20 -13 -15 -54 -58 -91 -96 -46 -45 -67
-74 -63 -84 3 -8 2 -13 -3 -10 -9 6 -70 -86 -123 -185 -52 -98 -119 -333 -103
-359 9 -15 205 -13 209 3 2 6 9 35 15 62 22 90 82 228 139 315 143 222 367
384 629 458 89 25 112 27 258 26 143 -1 169 -4 249 -28 313 -94 543 -290 681
-579 30 -61 63 -146 73 -187 l19 -75 99 0 99 0 -2 52 c-4 101 -70 286 -146
408 -27 44 -52 82 -56 85 -7 6 -28 38 -38 58 -15 32 -216 223 -229 218 -8 -3
-14 0 -14 7 0 7 -18 23 -40 37 -22 14 -40 28 -40 33 0 4 -5 5 -10 2 -6 -3 -17
1 -26 9 -8 9 -22 16 -30 16 -8 0 -12 5 -9 10 4 6 -7 10 -25 10 -18 0 -29 4
-25 10 6 9 -13 14 -40 11 -6 0 -26 12 -44 29 -27 22 -41 28 -65 24 -24 -4 -28
-3 -16 5 13 9 13 11 -2 11 -9 0 -25 3 -35 6 -15 5 -15 4 -3 -5 17 -12 2 -15
-25 -5 -13 6 -14 9 -3 16 9 7 4 8 -14 4 -15 -4 -46 -2 -70 3 -118 26 -169 34
-231 35 -38 0 -71 -3 -74 -7z"/>
<path d="M3098 4433 c7 -3 16 -2 19 1 4 3 -2 6 -13 5 -11 0 -14 -3 -6 -6z"/>
<path d="M2423 3694 c-13 -6 -20 -14 -16 -18 4 -4 1 -4 -8 -1 -25 9 -102 -57
-134 -116 l-30 -54 -7 -305 c-3 -168 -11 -327 -17 -355 -30 -149 7 -235 102
-235 49 0 73 13 92 50 13 24 15 89 15 399 l0 370 34 35 c50 54 113 46 157 -20
17 -27 19 -49 19 -286 0 -328 7 -363 92 -475 57 -75 154 -132 276 -163 34 -9
42 -15 42 -34 0 -27 30 -118 56 -169 23 -43 217 -267 346 -399 72 -73 109
-103 163 -129 65 -32 76 -34 170 -34 87 0 107 3 155 26 111 53 190 163 190
265 0 52 -3 59 -36 90 -39 37 -61 41 -103 19 -25 -12 -61 -67 -61 -92 0 -51
-65 -92 -151 -94 -86 -3 -107 13 -298 220 -47 52 -95 103 -106 115 -63 66
-115 152 -115 189 0 9 25 20 73 32 39 9 84 24 99 31 15 8 29 14 33 14 3 0 5
-24 5 -53 0 -170 120 -293 265 -274 65 9 102 31 170 102 141 145 265 412 277
595 l3 45 -101 3 -102 3 -7 -48 c-19 -132 -150 -390 -225 -447 -22 -16 -36
-34 -33 -39 3 -6 1 -7 -5 -3 -9 5 -12 89 -13 294 0 158 -4 388 -8 512 -7 216
-8 227 -33 275 -36 69 -99 132 -120 119 -7 -4 -8 -3 -4 5 4 6 0 14 -11 17 -10
3 -33 13 -52 21 -25 12 -52 14 -100 9 -90 -8 -149 -25 -130 -37 11 -7 10 -9
-6 -10 -11 -1 -23 -1 -27 0 -10 1 -73 -81 -91 -121 -32 -67 -37 -139 -38 -492
0 -194 -4 -342 -8 -331 -8 18 -55 34 -138 47 -5 1 -25 24 -45 51 -21 28 -39
51 -39 51 -1 1 -4 136 -8 301 -6 296 -7 301 -33 356 -42 91 -114 153 -203 174
-48 12 -148 12 -172 -1z m997 -209 c59 -30 61 -46 58 -362 l-3 -285 -36 -32
c-33 -28 -131 -66 -171 -66 -23 0 -31 30 -14 49 13 14 16 71 18 335 l3 318 33
29 c36 32 69 36 112 14z m-403 -761 c-3 -3 -12 -4 -19 -1 -8 3 -5 6 6 6 11 1
17 -2 13 -5z"/>
<path d="M2055 3270 c-4 -6 -123 -10 -326 -10 -180 0 -319 -4 -319 -9 0 -5
-11 -12 -25 -15 -16 -4 -38 -25 -56 -54 -26 -40 -30 -54 -25 -94 6 -56 28 -94
67 -114 61 -31 142 -5 174 56 l16 30 267 0 c263 0 267 0 295 23 22 17 30 34
34 68 6 55 -7 83 -50 109 -37 23 -43 24 -52 10z"/>
<path d="M3804 3269 c-50 -25 -71 -122 -36 -165 33 -41 52 -44 296 -44 l235 0
16 -34 c27 -57 115 -84 175 -53 13 7 35 28 48 47 31 46 28 134 -6 170 -12 13
-22 27 -22 31 0 4 -15 14 -34 23 -29 14 -81 17 -303 20 -147 2 -286 7 -308 10
-22 3 -49 1 -61 -5z"/>
<path d="M1693 2917 c18 -211 154 -465 353 -657 166 -161 340 -259 559 -317
89 -23 125 -26 338 -32 132 -3 241 -3 243 1 3 4 6 36 7 72 1 35 6 62 10 59 5
-3 4 4 -2 15 -16 29 -62 64 -78 57 -8 -2 -11 0 -8 5 5 7 -51 10 -167 10 -98
-1 -195 4 -223 10 -27 6 -68 14 -90 16 -22 3 -45 10 -52 16 -7 5 -17 7 -23 3
-5 -3 -10 -2 -10 4 0 5 -10 13 -22 17 -41 12 -128 57 -128 66 0 4 -5 8 -11 8
-12 0 -100 57 -144 94 -47 40 -48 41 -78 75 -15 18 -33 29 -39 25 -7 -4 -8 -3
-4 5 9 14 -20 45 -34 36 -6 -3 -7 0 -4 9 4 9 -1 18 -10 22 -9 3 -16 12 -16 19
0 8 -6 20 -13 27 -12 12 -43 73 -90 178 -18 40 -57 185 -57 212 0 16 -10 18
-106 18 l-107 0 6 -73z m1180 -804 c-7 -2 -21 -2 -30 0 -10 3 -4 5 12 5 17 0
24 -2 18 -5z"/>
<path d="M3219 2028 c-1 -18 -1 -36 0 -40 0 -4 5 -72 10 -151 8 -124 13 -152
35 -200 36 -75 111 -142 182 -163 41 -12 58 -22 69 -44 20 -40 92 -80 141 -80
52 0 103 27 132 70 20 30 23 45 20 102 -3 54 -8 72 -28 93 -37 39 -73 55 -128
55 -61 0 -108 -29 -140 -87 -22 -40 -24 -41 -54 -31 -18 6 -51 30 -74 54 -55
54 -74 117 -74 241 0 99 -13 142 -60 191 -27 29 -30 28 -31 -10z"/>
</g>
</svg>
